<svg width="335" height="99" viewBox="0 0 335 99" fill="none" xmlns="http://www.w3.org/2000/svg">
<g clip-path="url(#clip0_87_353)">
<path d="M43.77 48.7401C43.77 40.0101 43.77 31.2801 43.77 22.5501C43.77 16.6401 43.82 10.7401 43.74 4.8301C43.69 1.6501 41.07 -0.639896 37.65 0.150104C37.07 0.280104 36.49 0.440104 35.92 0.580104C33.98 1.0701 32.04 1.5401 30.11 2.0401C27.58 2.6901 25.06 3.3601 22.53 4.0101C20.52 4.5301 18.5 5.0201 16.49 5.5301C14.69 5.9901 12.9 6.4501 11.11 6.9201C8.99 7.4701 6.86 7.9801 4.75 8.5801C3.13 9.0401 1.8 9.9401 0.92 11.4101C0.26 12.5001 0 13.6901 0 14.9401C0 20.6401 0 26.3301 0 32.0301C0 44.5701 0 57.1101 0.01 69.6401C0.01 74.1701 0.02 78.7101 0.09 83.2401C0.12 85.2101 0.81 86.9701 2.3 88.3301C3.15 89.1101 4.2 89.5301 5.29 89.8501C7.24 90.4201 9.19 90.9601 11.14 91.5101C13.88 92.2801 16.63 93.0401 19.37 93.7901C23.03 94.8001 26.7 95.7901 30.36 96.7901C32.44 97.3601 34.51 97.9601 36.6 98.4701C38.28 98.8801 39.9 98.6201 41.26 97.4901C42.9 96.1201 43.76 94.3601 43.76 92.1701C43.75 77.7001 43.76 63.2201 43.76 48.7501L43.77 48.7401Z" fill="white"/>
<path d="M43.77 48.7401C43.77 63.2101 43.77 77.6901 43.77 92.1601C43.77 94.3501 42.91 96.1101 41.27 97.4801C39.92 98.6101 38.29 98.8601 36.61 98.4601C34.52 97.9501 32.45 97.3501 30.37 96.7801C26.7 95.7801 23.04 94.7901 19.38 93.7801C16.63 93.0301 13.89 92.2601 11.15 91.5001C9.2 90.9601 7.24 90.4101 5.3 89.8401C4.21 89.5201 3.16 89.1001 2.31 88.3201C0.82 86.9501 0.13 85.2001 0.1 83.2301C0.03 78.7001 0.02 74.1601 0.02 69.6301C0 57.1001 0 44.5701 0 32.0301C0 26.3301 0 20.6401 0 14.9401C0 13.6901 0.25 12.5001 0.9 11.4201C1.78 9.95011 3.12 9.05011 4.73 8.59011C6.84 8.00011 8.97 7.48011 11.09 6.93011C12.88 6.47011 14.68 6.00011 16.47 5.54011C18.48 5.03011 20.5 4.53011 22.51 4.02011C25.04 3.37011 27.56 2.70011 30.09 2.05011C32.02 1.55011 33.96 1.08011 35.9 0.590114C36.48 0.450114 37.05 0.290114 37.63 0.160114C41.05 -0.629886 43.67 1.66011 43.72 4.84011C43.8 10.7401 43.75 16.6501 43.75 22.5601C43.75 31.2901 43.75 40.0201 43.75 48.7501L43.77 48.7401Z" fill="black"/>
<path d="M111.93 68.5701C111.66 68.8201 111.29 68.9401 110.79 68.9401H103.56C103.1 68.9401 102.76 68.8301 102.53 68.6101C102.3 68.3901 102.16 68.0301 102.11 67.5401L99.81 45.5101L93.73 67.0201C93.58 67.5301 93.4 67.8901 93.18 68.0901C92.96 68.2901 92.63 68.3901 92.19 68.3901H84.85C84.41 68.3901 84.08 68.2901 83.86 68.1001C83.64 67.9101 83.46 67.5501 83.31 67.0201L77.25 45.5601L74.92 67.5401C74.87 68.0301 74.72 68.3901 74.48 68.6101C74.24 68.8301 73.9 68.9401 73.44 68.9401H66.23C65.74 68.9401 65.36 68.8201 65.09 68.5701C64.82 68.3201 64.72 67.9501 64.78 67.4601L69.19 30.2701C69.3 29.3201 69.77 28.8501 70.61 28.8501H79.9C80.78 28.8501 81.33 29.3101 81.57 30.2201L88.5 54.3901L95.43 30.2201C95.54 29.7601 95.73 29.4201 95.99 29.1901C96.25 28.9601 96.62 28.8501 97.1 28.8501H106.39C107.23 28.8501 107.71 29.3301 107.81 30.2701L112.22 67.4601C112.28 67.9501 112.17 68.3201 111.91 68.5701H111.93Z" fill="#1D1D1B"/>
<path d="M132.48 45.2501C134.3 46.0101 135.69 47.1001 136.67 48.5201C137.65 49.9501 138.14 51.6301 138.14 53.5601V67.8101C138.14 68.1601 138.05 68.4301 137.88 68.6301C137.71 68.8301 137.46 68.9301 137.15 68.9301L132.35 68.9001C132.19 68.9001 132.04 68.8601 131.9 68.7801C131.76 68.7001 131.66 68.5801 131.59 68.4401L130.77 66.7101C129.89 67.6601 128.81 68.4101 127.52 68.9601C126.23 69.5101 124.74 69.7801 123.04 69.7801C121.21 69.7801 119.63 69.4701 118.29 68.8601C116.95 68.2501 115.91 67.3601 115.18 66.1901C114.45 65.0201 114.08 63.6201 114.08 62.0001C114.08 59.6801 114.83 57.9401 116.33 56.7901C117.83 55.6401 120.03 55.0501 122.93 55.0401L129.12 55.0101V54.2401C129.12 53.4401 128.81 52.8001 128.2 52.3201C127.59 51.8501 126.78 51.6101 125.77 51.6101C123.39 51.6101 121.37 51.9801 119.69 52.7101C119.42 52.8201 119.16 52.8701 118.92 52.8701C118.5 52.8701 118.21 52.7001 118.04 52.3501L116.18 48.1301C116.07 47.9101 116.02 47.6901 116.02 47.4701C116.02 47.0001 116.33 46.5901 116.95 46.2601C118.1 45.6401 119.53 45.1201 121.24 44.7101C122.95 44.3001 124.55 44.0901 126.05 44.0901C128.52 44.0901 130.66 44.4701 132.48 45.2301V45.2501ZM128.15 62.2601C128.8 61.6801 129.12 60.8201 129.12 59.6801H125.09C124.38 59.6801 123.85 59.8301 123.5 60.1201C123.15 60.4101 122.98 60.8001 122.98 61.3001C122.98 61.8501 123.22 62.2901 123.71 62.6301C124.19 62.9701 124.82 63.1401 125.59 63.1401C126.65 63.1401 127.5 62.8501 128.15 62.2601Z" fill="#1D1D1B"/>
<path d="M139.6 45.9301C139.6 45.6401 139.69 45.4001 139.86 45.2301C140.03 45.0601 140.27 44.9701 140.56 44.9701H142.92V39.9001C142.92 39.3301 143.18 38.9501 143.71 38.7501L150.92 35.9001C151.05 35.8501 151.18 35.8201 151.33 35.8201C151.55 35.8201 151.73 35.9001 151.86 36.0701C152 36.2301 152.07 36.4501 152.07 36.7301V44.9801H156.51C156.82 44.9801 157.06 45.0601 157.22 45.2301C157.38 45.4001 157.47 45.6301 157.47 45.9401V52.1901C157.47 52.4801 157.39 52.7201 157.22 52.8901C157.05 53.0601 156.82 53.1501 156.51 53.1501H152.1V68.0001C152.1 68.2901 152.02 68.5301 151.85 68.7001C151.69 68.8701 151.45 68.9601 151.14 68.9601H143.91C143.6 68.9601 143.36 68.8801 143.2 68.7101C143.04 68.5401 142.95 68.3101 142.95 68.0001V53.1501H140.57C140.28 53.1501 140.04 53.0601 139.87 52.8901C139.7 52.7201 139.61 52.4801 139.61 52.1901V45.9401L139.6 45.9301Z" fill="#1D1D1B"/>
<path d="M174.37 59.6301C174.68 59.6301 174.95 59.7901 175.16 60.1001L178.8 65.3901C178.95 65.6301 179.02 65.8401 179.02 66.0201C179.02 66.3301 178.87 66.6001 178.58 66.8101C177.43 67.7601 176.16 68.5001 174.77 69.0201C173.38 69.5401 171.92 69.8001 170.39 69.8001C168.01 69.8001 165.82 69.2201 163.81 68.0701C161.8 66.9201 160.21 65.3701 159.04 63.4101C157.87 61.4501 157.29 59.3201 157.29 57.0001C157.29 54.6801 157.87 52.5101 159.04 50.5501C160.21 48.5901 161.79 47.0301 163.79 45.8801C165.79 44.7301 167.98 44.1501 170.35 44.1501C171.88 44.1501 173.35 44.4001 174.76 44.9001C176.17 45.4001 177.44 46.1101 178.57 47.0201C178.86 47.2401 179.01 47.5001 179.01 47.7901C179.01 47.9901 178.94 48.2101 178.79 48.4501L175.2 53.9001C174.98 54.2301 174.72 54.3901 174.43 54.3901C174.23 54.3901 174.01 54.3201 173.77 54.1701C173.09 53.7301 172.52 53.4101 172.06 53.2001C171.6 52.9901 171.07 52.8801 170.48 52.8801C169.37 52.8801 168.45 53.2601 167.73 54.0301C167.01 54.8001 166.65 55.7801 166.65 56.9601C166.65 58.1401 167.02 59.1001 167.75 59.8801C168.48 60.6601 169.4 61.0501 170.52 61.0501C171.09 61.0501 171.6 60.9401 172.05 60.7301C172.51 60.5201 173.07 60.2101 173.75 59.7801C173.97 59.6701 174.17 59.6201 174.35 59.6201L174.37 59.6301Z" fill="#1D1D1B"/>
<path d="M203.31 47.0901C204.9 49.0501 205.69 51.9001 205.69 55.6301V67.8801C205.69 68.5601 205.35 68.8901 204.68 68.8901H197.56C196.88 68.8901 196.55 68.5501 196.55 67.8801V55.5801C196.55 54.7901 196.27 54.1501 195.7 53.6501C195.13 53.1501 194.47 52.9001 193.7 52.9001C192.82 52.9001 192.08 53.1901 191.48 53.7801C190.88 54.3601 190.58 55.1601 190.58 56.1601L190.55 56.1101V68.0001C190.55 68.3101 190.47 68.5501 190.3 68.7101C190.14 68.8701 189.9 68.9601 189.59 68.9601H182.36C182.07 68.9601 181.83 68.8701 181.66 68.7001C181.49 68.5301 181.4 68.2901 181.4 68.0001V29.8101C181.4 29.5001 181.49 29.2601 181.66 29.1001C181.83 28.9401 182.07 28.8501 182.36 28.8501H189.59C189.9 28.8501 190.14 28.9301 190.3 29.1001C190.46 29.2701 190.55 29.5001 190.55 29.8101V46.1101C191.37 45.4701 192.27 44.9801 193.23 44.6401C194.2 44.3001 195.2 44.1301 196.24 44.1301C199.36 44.1301 201.72 45.1101 203.31 47.0801V47.0901Z" fill="#1D1D1B"/>
<path d="M240.9 67.8801C240.9 68.1701 240.8 68.4201 240.6 68.6301C240.4 68.8401 240.13 68.9501 239.81 68.9501H231.62C231.22 68.9501 230.9 68.8601 230.67 68.6901C230.44 68.5201 230.2 68.1901 229.94 67.7201L224.08 56.4301H220V67.5001C220 67.9601 219.87 68.3101 219.6 68.5701C219.33 68.8301 218.97 68.9501 218.49 68.9501H211.48C211.02 68.9501 210.67 68.8201 210.42 68.5701C210.17 68.3101 210.05 67.9601 210.05 67.5001V30.3301C210.05 29.9101 210.18 29.5601 210.45 29.2901C210.71 29.0201 211.06 28.8801 211.48 28.8801H225.54C228.35 28.8801 230.85 29.4501 233.02 30.5901C235.19 31.7301 236.89 33.3501 238.1 35.4501C239.31 37.5501 239.92 39.9901 239.92 42.7701C239.92 45.2701 239.38 47.5201 238.29 49.5101C237.2 51.5001 235.68 53.0801 233.73 54.2501L240.75 67.2701C240.86 67.4501 240.91 67.6501 240.91 67.8701L240.9 67.8801ZM220 47.8401H225.12C226.05 47.8401 226.89 47.6101 227.63 47.1501C228.37 46.6901 228.95 46.0701 229.37 45.2901C229.79 44.5001 230 43.6501 230 42.7101C230 41.7701 229.79 40.9401 229.37 40.2001C228.95 39.4601 228.37 38.8801 227.63 38.4701C226.89 38.0601 226.05 37.8501 225.12 37.8501H220V47.8201V47.8401Z" fill="#1D1D1B"/>
<path d="M242.78 50.5401C243.96 48.5801 245.55 47.0201 247.55 45.8701C249.55 44.7201 251.75 44.1401 254.14 44.1401C256.53 44.1401 258.7 44.7201 260.69 45.8701C262.68 47.0201 264.26 48.5801 265.43 50.5601C266.6 52.5401 267.18 54.6901 267.18 57.0301C267.18 59.3701 266.6 61.4901 265.43 63.4401C264.26 65.4001 262.68 66.9401 260.68 68.0801C258.68 69.2201 256.5 69.7901 254.14 69.7901C251.78 69.7901 249.55 69.2201 247.54 68.0801C245.53 66.9401 243.94 65.3901 242.77 63.4401C241.6 61.4901 241.02 59.3501 241.02 57.0301C241.02 54.7101 241.61 52.5101 242.79 50.5501L242.78 50.5401ZM250.68 58.9401C251.04 59.5401 251.52 60.0201 252.12 60.3801C252.72 60.7401 253.38 60.9101 254.09 60.9101C254.8 60.9101 255.46 60.7301 256.06 60.3801C256.66 60.0201 257.14 59.5501 257.5 58.9401C257.86 58.3401 258.03 57.6801 258.03 56.9701C258.03 56.2601 257.85 55.6001 257.5 55.0001C257.14 54.4001 256.66 53.9201 256.06 53.5601C255.46 53.2001 254.8 53.0301 254.09 53.0301C253.38 53.0301 252.72 53.2101 252.12 53.5601C251.52 53.9201 251.04 54.4001 250.68 55.0001C250.32 55.6001 250.15 56.2601 250.15 56.9701C250.15 57.6801 250.33 58.3401 250.68 58.9401Z" fill="#1D1D1B"/>
<path d="M269.61 50.5401C270.79 48.5801 272.38 47.0201 274.38 45.8701C276.38 44.7201 278.58 44.1401 280.97 44.1401C283.36 44.1401 285.53 44.7201 287.52 45.8701C289.51 47.0201 291.09 48.5801 292.26 50.5601C293.43 52.5401 294.01 54.6901 294.01 57.0301C294.01 59.3701 293.43 61.4901 292.26 63.4401C291.09 65.4001 289.51 66.9401 287.51 68.0801C285.51 69.2201 283.33 69.7901 280.97 69.7901C278.61 69.7901 276.38 69.2201 274.37 68.0801C272.36 66.9401 270.77 65.3901 269.6 63.4401C268.43 61.4901 267.85 59.3501 267.85 57.0301C267.85 54.7101 268.44 52.5101 269.62 50.5501L269.61 50.5401ZM277.5 58.9401C277.86 59.5401 278.34 60.0201 278.94 60.3801C279.54 60.7401 280.2 60.9101 280.91 60.9101C281.62 60.9101 282.28 60.7301 282.88 60.3801C283.48 60.0201 283.96 59.5501 284.32 58.9401C284.68 58.3401 284.85 57.6801 284.85 56.9701C284.85 56.2601 284.67 55.6001 284.32 55.0001C283.96 54.4001 283.48 53.9201 282.88 53.5601C282.28 53.2001 281.62 53.0301 280.91 53.0301C280.2 53.0301 279.54 53.2101 278.94 53.5601C278.34 53.9201 277.86 54.4001 277.5 55.0001C277.14 55.6001 276.97 56.2601 276.97 56.9701C276.97 57.6801 277.15 58.3401 277.5 58.9401Z" fill="#1D1D1B"/>
<path d="M332.53 47.0902C334.09 49.0502 334.87 51.9002 334.87 55.6302V67.8802C334.87 68.5602 334.53 68.8902 333.86 68.8902H326.71C326.4 68.8902 326.15 68.8002 325.97 68.6302C325.79 68.4602 325.7 68.2102 325.7 67.8802V55.5502C325.7 54.7502 325.46 54.1002 324.97 53.6202C324.49 53.1402 323.91 52.8902 323.23 52.8902C322.32 52.8902 321.56 53.1502 320.96 53.6802C320.36 54.2102 320.06 54.9302 320.06 55.8402V67.8702C320.06 68.5502 319.72 68.8802 319.05 68.8802H311.93C311.25 68.8802 310.92 68.5402 310.92 67.8702V55.5402C310.92 54.7402 310.67 54.0902 310.18 53.6102C309.69 53.1302 309.09 52.8802 308.4 52.8802C307.56 52.8802 306.85 53.2002 306.28 53.8302C305.7 54.4602 305.42 55.2302 305.42 56.1502L305.39 56.1002V67.8802C305.39 68.5602 305.07 68.8902 304.43 68.8902H297.25C296.57 68.8902 296.24 68.5502 296.24 67.8802V45.9602C296.24 45.6502 296.34 45.4002 296.53 45.2202C296.72 45.0402 296.97 44.9502 297.28 44.9502H302.98C303.2 44.9502 303.4 45.0002 303.57 45.1002C303.74 45.2002 303.87 45.3402 303.94 45.5202L304.46 47.2202C305.32 46.2302 306.31 45.4702 307.42 44.9502C308.53 44.4202 309.68 44.1602 310.87 44.1602C312.57 44.1602 314.04 44.4802 315.28 45.1102C316.52 45.7402 317.52 46.6702 318.27 47.8902C319.09 46.7202 320.17 45.8102 321.52 45.1502C322.87 44.4902 324.26 44.1602 325.73 44.1602C328.73 44.1602 331 45.1402 332.57 47.1102L332.53 47.0902Z" fill="#1D1D1B"/>
</g>
<defs>
<clipPath id="clip0_87_353">
<rect width="334.87" height="98.65" fill="white"/>
</clipPath>
</defs>
</svg>
