<svg width="335" height="99" viewBox="0 0 335 99" fill="none" xmlns="http://www.w3.org/2000/svg">
<path d="M43.77 48.7469C43.77 40.0169 43.77 31.2869 43.77 22.5569C43.77 16.6469 43.82 10.7469 43.74 4.83694C43.69 1.65694 41.07 -0.63306 37.65 0.15694C37.07 0.28694 36.49 0.44694 35.92 0.58694C33.98 1.07694 32.04 1.54694 30.11 2.04694C27.58 2.69694 25.06 3.36694 22.53 4.01694C20.52 4.53694 18.5 5.02694 16.49 5.53694C14.69 5.99694 12.9 6.45694 11.11 6.92694C8.99 7.47694 6.86 7.98694 4.75 8.58694C3.13 9.04694 1.8 9.94694 0.92 11.4169C0.26 12.5069 0 13.6969 0 14.9469C0 20.6469 0 26.3369 0 32.0369C0 44.5769 0 57.1169 0.01 69.6469C0.01 74.1769 0.02 78.7169 0.09 83.2469C0.12 85.2169 0.81 86.9769 2.3 88.3369C3.15 89.1169 4.2 89.5369 5.29 89.8569C7.24 90.4269 9.19 90.9669 11.14 91.5169C13.88 92.2869 16.63 93.0469 19.37 93.7969C23.03 94.8069 26.7 95.7969 30.36 96.7969C32.44 97.3669 34.51 97.9669 36.6 98.4769C38.28 98.8869 39.9 98.6269 41.26 97.4969C42.9 96.1269 43.76 94.3669 43.76 92.1769C43.75 77.7069 43.76 63.2269 43.76 48.7569L43.77 48.7469Z" fill="white"/>
<path d="M43.77 48.747C43.77 63.217 43.77 77.697 43.77 92.167C43.77 94.357 42.91 96.117 41.27 97.487C39.92 98.617 38.29 98.867 36.61 98.4669C34.52 97.9569 32.45 97.3569 30.37 96.7869C26.7 95.7869 23.04 94.797 19.38 93.7869C16.63 93.0369 13.89 92.267 11.15 91.507C9.2 90.9669 7.24 90.4169 5.3 89.8469C4.21 89.5269 3.16 89.1069 2.31 88.327C0.82 86.9569 0.13 85.207 0.1 83.237C0.03 78.707 0.02 74.1669 0.02 69.6369C0 57.1069 0 44.577 0 32.0369C0 26.3369 0 20.6469 0 14.9469C0 13.6969 0.25 12.5069 0.9 11.4269C1.78 9.95695 3.12 9.05695 4.73 8.59695C6.84 8.00695 8.97 7.48695 11.09 6.93695C12.88 6.47695 14.68 6.00695 16.47 5.54695C18.48 5.03695 20.5 4.53695 22.51 4.02695C25.04 3.37695 27.56 2.70695 30.09 2.05695C32.02 1.55695 33.96 1.08695 35.9 0.59695C36.48 0.45695 37.05 0.29695 37.63 0.16695C41.05 -0.62305 43.67 1.66695 43.72 4.84695C43.8 10.747 43.75 16.6569 43.75 22.5669C43.75 31.2969 43.75 40.027 43.75 48.757L43.77 48.747Z" fill="white"/>
<path d="M111.93 68.5769C111.66 68.8269 111.29 68.9469 110.79 68.9469H103.56C103.1 68.9469 102.76 68.8369 102.53 68.6169C102.3 68.3969 102.16 68.0369 102.11 67.5469L99.81 45.5169L93.73 67.0269C93.58 67.5369 93.4 67.8969 93.18 68.0969C92.96 68.2969 92.63 68.3969 92.19 68.3969H84.85C84.41 68.3969 84.08 68.2969 83.86 68.1069C83.64 67.9169 83.46 67.5569 83.31 67.0269L77.25 45.5669L74.92 67.5469C74.87 68.0369 74.72 68.3969 74.48 68.6169C74.24 68.8369 73.9 68.9469 73.44 68.9469H66.23C65.74 68.9469 65.36 68.8269 65.09 68.5769C64.82 68.3269 64.72 67.9569 64.78 67.4669L69.19 30.2769C69.3 29.3269 69.77 28.8569 70.61 28.8569H79.9C80.78 28.8569 81.33 29.3169 81.57 30.2269L88.5 54.3969L95.43 30.2269C95.54 29.7669 95.73 29.4269 95.99 29.1969C96.25 28.9669 96.62 28.8569 97.1 28.8569H106.39C107.23 28.8569 107.71 29.3369 107.81 30.2769L112.22 67.4669C112.28 67.9569 112.17 68.3269 111.91 68.5769H111.93Z" fill="white"/>
<path d="M132.48 45.2569C134.3 46.0169 135.69 47.1069 136.67 48.5269C137.65 49.9569 138.14 51.6369 138.14 53.5669V67.8169C138.14 68.1669 138.05 68.4369 137.88 68.6369C137.71 68.8369 137.46 68.9369 137.15 68.9369L132.35 68.9069C132.19 68.9069 132.04 68.8669 131.9 68.7869C131.76 68.7069 131.66 68.5869 131.59 68.4469L130.77 66.7169C129.89 67.6669 128.81 68.4169 127.52 68.9669C126.23 69.5169 124.74 69.7869 123.04 69.7869C121.21 69.7869 119.63 69.4769 118.29 68.8669C116.95 68.2569 115.91 67.3669 115.18 66.1969C114.45 65.0269 114.08 63.6269 114.08 62.0069C114.08 59.6869 114.83 57.9469 116.33 56.7969C117.83 55.6469 120.03 55.0569 122.93 55.0469L129.12 55.0169V54.2469C129.12 53.4469 128.81 52.8069 128.2 52.3269C127.59 51.8569 126.78 51.6169 125.77 51.6169C123.39 51.6169 121.37 51.9869 119.69 52.7169C119.42 52.8269 119.16 52.8769 118.92 52.8769C118.5 52.8769 118.21 52.7069 118.04 52.3569L116.18 48.1369C116.07 47.9169 116.02 47.6969 116.02 47.4769C116.02 47.0069 116.33 46.5969 116.95 46.2669C118.1 45.6469 119.53 45.1269 121.24 44.7169C122.95 44.3069 124.55 44.0969 126.05 44.0969C128.52 44.0969 130.66 44.4769 132.48 45.2369V45.2569ZM128.15 62.2669C128.8 61.6869 129.12 60.8269 129.12 59.6869H125.09C124.38 59.6869 123.85 59.8369 123.5 60.1269C123.15 60.4169 122.98 60.8069 122.98 61.3069C122.98 61.8569 123.22 62.2969 123.71 62.6369C124.19 62.9769 124.82 63.1469 125.59 63.1469C126.65 63.1469 127.5 62.8569 128.15 62.2669Z" fill="white"/>
<path d="M139.6 45.9369C139.6 45.6469 139.69 45.4069 139.86 45.2369C140.03 45.0669 140.27 44.9769 140.56 44.9769H142.92V39.9069C142.92 39.3369 143.18 38.9569 143.71 38.7569L150.92 35.9069C151.05 35.8569 151.18 35.8269 151.33 35.8269C151.55 35.8269 151.73 35.9069 151.86 36.0769C152 36.2369 152.07 36.4569 152.07 36.7369V44.9869H156.51C156.82 44.9869 157.06 45.0669 157.22 45.2369C157.38 45.4069 157.47 45.6369 157.47 45.9469V52.1969C157.47 52.4869 157.39 52.7269 157.22 52.8969C157.05 53.0669 156.82 53.1569 156.51 53.1569H152.1V68.0069C152.1 68.2969 152.02 68.5369 151.85 68.7069C151.69 68.8769 151.45 68.9669 151.14 68.9669H143.91C143.6 68.9669 143.36 68.8869 143.2 68.7169C143.04 68.5469 142.95 68.3169 142.95 68.0069V53.1569H140.57C140.28 53.1569 140.04 53.0669 139.87 52.8969C139.7 52.7269 139.61 52.4869 139.61 52.1969V45.9469L139.6 45.9369Z" fill="white"/>
<path d="M174.37 59.637C174.68 59.637 174.95 59.797 175.16 60.107L178.8 65.397C178.95 65.637 179.02 65.847 179.02 66.027C179.02 66.337 178.87 66.607 178.58 66.817C177.43 67.767 176.16 68.507 174.77 69.027C173.38 69.547 171.92 69.807 170.39 69.807C168.01 69.807 165.82 69.227 163.81 68.077C161.8 66.927 160.21 65.377 159.04 63.417C157.87 61.457 157.29 59.327 157.29 57.007C157.29 54.687 157.87 52.517 159.04 50.557C160.21 48.597 161.79 47.037 163.79 45.887C165.79 44.737 167.98 44.157 170.35 44.157C171.88 44.157 173.35 44.407 174.76 44.907C176.17 45.407 177.44 46.117 178.57 47.027C178.86 47.247 179.01 47.507 179.01 47.797C179.01 47.997 178.94 48.217 178.79 48.457L175.2 53.907C174.98 54.237 174.72 54.397 174.43 54.397C174.23 54.397 174.01 54.327 173.77 54.177C173.09 53.737 172.52 53.417 172.06 53.207C171.6 52.997 171.07 52.887 170.48 52.887C169.37 52.887 168.45 53.267 167.73 54.037C167.01 54.807 166.65 55.787 166.65 56.967C166.65 58.147 167.02 59.107 167.75 59.887C168.48 60.667 169.4 61.057 170.52 61.057C171.09 61.057 171.6 60.947 172.05 60.737C172.51 60.527 173.07 60.217 173.75 59.787C173.97 59.677 174.17 59.627 174.35 59.627L174.37 59.637Z" fill="white"/>
<path d="M203.31 47.0969C204.9 49.0569 205.69 51.9069 205.69 55.6369V67.8869C205.69 68.5669 205.35 68.8969 204.68 68.8969H197.56C196.88 68.8969 196.55 68.5569 196.55 67.8869V55.5869C196.55 54.7969 196.27 54.1569 195.7 53.6569C195.13 53.1569 194.47 52.9069 193.7 52.9069C192.82 52.9069 192.08 53.1969 191.48 53.7869C190.88 54.3669 190.58 55.1669 190.58 56.1669L190.55 56.1169V68.0069C190.55 68.3169 190.47 68.5569 190.3 68.7169C190.14 68.8769 189.9 68.9669 189.59 68.9669H182.36C182.07 68.9669 181.83 68.8769 181.66 68.7069C181.49 68.5369 181.4 68.2969 181.4 68.0069V29.8169C181.4 29.5069 181.49 29.2669 181.66 29.1069C181.83 28.9469 182.07 28.8569 182.36 28.8569H189.59C189.9 28.8569 190.14 28.9369 190.3 29.1069C190.46 29.2769 190.55 29.5069 190.55 29.8169V46.1169C191.37 45.4769 192.27 44.9869 193.23 44.6469C194.2 44.3069 195.2 44.1369 196.24 44.1369C199.36 44.1369 201.72 45.1169 203.31 47.0869V47.0969Z" fill="white"/>
<path d="M240.9 67.887C240.9 68.177 240.8 68.427 240.6 68.637C240.4 68.847 240.13 68.957 239.81 68.957H231.62C231.22 68.957 230.9 68.867 230.67 68.697C230.44 68.527 230.2 68.197 229.94 67.727L224.08 56.437H220V67.507C220 67.967 219.87 68.317 219.6 68.577C219.33 68.837 218.97 68.957 218.49 68.957H211.48C211.02 68.957 210.67 68.827 210.42 68.577C210.17 68.317 210.05 67.967 210.05 67.507V30.337C210.05 29.917 210.18 29.567 210.45 29.297C210.71 29.027 211.06 28.887 211.48 28.887H225.54C228.35 28.887 230.85 29.457 233.02 30.597C235.19 31.737 236.89 33.357 238.1 35.457C239.31 37.557 239.92 39.997 239.92 42.777C239.92 45.277 239.38 47.527 238.29 49.517C237.2 51.507 235.68 53.087 233.73 54.257L240.75 67.277C240.86 67.457 240.91 67.657 240.91 67.877L240.9 67.887ZM220 47.847H225.12C226.05 47.847 226.89 47.617 227.63 47.157C228.37 46.697 228.95 46.077 229.37 45.297C229.79 44.507 230 43.657 230 42.717C230 41.777 229.79 40.947 229.37 40.207C228.95 39.467 228.37 38.887 227.63 38.477C226.89 38.067 226.05 37.857 225.12 37.857H220V47.827V47.847Z" fill="white"/>
<path d="M242.78 50.547C243.96 48.587 245.55 47.027 247.55 45.877C249.55 44.727 251.75 44.147 254.14 44.147C256.53 44.147 258.7 44.727 260.69 45.877C262.68 47.027 264.26 48.587 265.43 50.567C266.6 52.547 267.18 54.697 267.18 57.037C267.18 59.377 266.6 61.497 265.43 63.447C264.26 65.407 262.68 66.947 260.68 68.087C258.68 69.227 256.5 69.797 254.14 69.797C251.78 69.797 249.55 69.227 247.54 68.087C245.53 66.947 243.94 65.397 242.77 63.447C241.6 61.497 241.02 59.357 241.02 57.037C241.02 54.717 241.61 52.517 242.79 50.557L242.78 50.547ZM250.68 58.947C251.04 59.547 251.52 60.027 252.12 60.387C252.72 60.747 253.38 60.917 254.09 60.917C254.8 60.917 255.46 60.737 256.06 60.387C256.66 60.027 257.14 59.557 257.5 58.947C257.86 58.347 258.03 57.687 258.03 56.977C258.03 56.267 257.85 55.607 257.5 55.007C257.14 54.407 256.66 53.927 256.06 53.567C255.46 53.207 254.8 53.037 254.09 53.037C253.38 53.037 252.72 53.217 252.12 53.567C251.52 53.927 251.04 54.407 250.68 55.007C250.32 55.607 250.15 56.267 250.15 56.977C250.15 57.687 250.33 58.347 250.68 58.947Z" fill="white"/>
<path d="M269.61 50.547C270.79 48.587 272.38 47.027 274.38 45.877C276.38 44.727 278.58 44.147 280.97 44.147C283.36 44.147 285.53 44.727 287.52 45.877C289.51 47.027 291.09 48.587 292.26 50.567C293.43 52.547 294.01 54.697 294.01 57.037C294.01 59.377 293.43 61.497 292.26 63.447C291.09 65.407 289.51 66.947 287.51 68.087C285.51 69.227 283.33 69.797 280.97 69.797C278.61 69.797 276.38 69.227 274.37 68.087C272.36 66.947 270.77 65.397 269.6 63.447C268.43 61.497 267.85 59.357 267.85 57.037C267.85 54.717 268.44 52.517 269.62 50.557L269.61 50.547ZM277.5 58.947C277.86 59.547 278.34 60.027 278.94 60.387C279.54 60.747 280.2 60.917 280.91 60.917C281.62 60.917 282.28 60.737 282.88 60.387C283.48 60.027 283.96 59.557 284.32 58.947C284.68 58.347 284.85 57.687 284.85 56.977C284.85 56.267 284.67 55.607 284.32 55.007C283.96 54.407 283.48 53.927 282.88 53.567C282.28 53.207 281.62 53.037 280.91 53.037C280.2 53.037 279.54 53.217 278.94 53.567C278.34 53.927 277.86 54.407 277.5 55.007C277.14 55.607 276.97 56.267 276.97 56.977C276.97 57.687 277.15 58.347 277.5 58.947Z" fill="white"/>
<path d="M332.53 47.097C334.09 49.057 334.87 51.907 334.87 55.637V67.887C334.87 68.567 334.53 68.897 333.86 68.897H326.71C326.4 68.897 326.15 68.807 325.97 68.637C325.79 68.467 325.7 68.217 325.7 67.887V55.557C325.7 54.757 325.46 54.107 324.97 53.627C324.49 53.147 323.91 52.897 323.23 52.897C322.32 52.897 321.56 53.157 320.96 53.687C320.36 54.217 320.06 54.937 320.06 55.847V67.877C320.06 68.557 319.72 68.887 319.05 68.887H311.93C311.25 68.887 310.92 68.547 310.92 67.877V55.547C310.92 54.747 310.67 54.097 310.18 53.617C309.69 53.137 309.09 52.887 308.4 52.887C307.56 52.887 306.85 53.207 306.28 53.837C305.7 54.467 305.42 55.237 305.42 56.157L305.39 56.107V67.887C305.39 68.567 305.07 68.897 304.43 68.897H297.25C296.57 68.897 296.24 68.557 296.24 67.887V45.967C296.24 45.657 296.34 45.407 296.53 45.227C296.72 45.047 296.97 44.957 297.28 44.957H302.98C303.2 44.957 303.4 45.007 303.57 45.107C303.74 45.207 303.87 45.347 303.94 45.527L304.46 47.227C305.32 46.237 306.31 45.477 307.42 44.957C308.53 44.427 309.68 44.167 310.87 44.167C312.57 44.167 314.04 44.487 315.28 45.117C316.52 45.747 317.52 46.677 318.27 47.897C319.09 46.727 320.17 45.817 321.52 45.157C322.87 44.497 324.26 44.167 325.73 44.167C328.73 44.167 331 45.147 332.57 47.117L332.53 47.097Z" fill="white"/>
</svg>
