<svg width="44" height="99" viewBox="0 0 44 99" fill="none" xmlns="http://www.w3.org/2000/svg">
<path d="M43.77 48.7438C43.77 63.2138 43.77 77.6938 43.77 92.1638C43.77 94.3538 42.91 96.1138 41.27 97.4838C39.92 98.6138 38.29 98.8638 36.61 98.4638C34.52 97.9538 32.45 97.3538 30.37 96.7838C26.7 95.7838 23.04 94.7938 19.38 93.7838C16.63 93.0338 13.89 92.2638 11.15 91.5038C9.2 90.9638 7.24 90.4138 5.3 89.8438C4.21 89.5238 3.16 89.1038 2.31 88.3238C0.82 86.9538 0.13 85.2038 0.1 83.2338C0.03 78.7038 0.02 74.1638 0.02 69.6338C0 57.1038 0 44.5738 0 32.0338C0 26.3338 0 20.6438 0 14.9438C0 13.6938 0.25 12.5038 0.9 11.4238C1.78 9.95378 3.12 9.05378 4.73 8.59378C6.84 8.00378 8.97 7.48378 11.09 6.93378C12.88 6.47378 14.68 6.00378 16.47 5.54378C18.48 5.03378 20.5 4.53378 22.51 4.02378C25.04 3.37378 27.56 2.70378 30.09 2.05378C32.02 1.55378 33.96 1.08378 35.9 0.593776C36.48 0.453776 37.05 0.293776 37.63 0.163776C41.05 -0.626224 43.67 1.66378 43.72 4.84378C43.8 10.7438 43.75 16.6538 43.75 22.5638C43.75 31.2938 43.75 40.0238 43.75 48.7538L43.77 48.7438Z" fill="black"/>
</svg>
